<svg xmlns="http://www.w3.org/2000/svg" viewBox="0 0 900 500" font-family="system-ui, sans-serif">
<title>Ray Dalio — Big Cycle — spectral verdict</title>
<text x="55.0" y="28.0" font-family="system-ui, sans-serif" font-size="16" fill="#2b2926" text-anchor="start" font-weight="600">Ray Dalio — Big Cycle</text>
<text x="55.0" y="46.0" font-family="system-ui, sans-serif" font-size="12" fill="#6b675f" text-anchor="start" font-weight="normal">vs US Share of World GDP · target period 75 years</text>
<line x1="55" y1="218" x2="875" y2="218" stroke="#c9c4b8" stroke-width="1"/>
<polyline points="55.0,70.7 60.4,68.3 65.8,66.4 71.2,65.1 76.6,64.3 82.0,64.0 87.4,64.3 92.8,65.1 98.2,66.4 103.6,68.3 108.9,70.7 114.3,73.5 119.7,76.9 125.1,80.7 130.5,84.9 135.9,89.5 141.3,94.4 146.7,99.7 152.1,105.3 157.5,111.2 162.9,117.2 168.3,123.4 173.7,129.8 179.1,136.2 184.5,142.6 189.9,149.0 195.3,155.4 200.7,161.7 206.1,167.8 211.4,173.8 216.8,179.5 222.2,184.9 227.6,190.1 233.0,194.9 238.4,199.3 243.8,203.3 249.2,206.9 254.6,210.0 260.0,212.6 265.4,214.7 270.8,216.3 276.2,217.4 281.6,217.9 287.0,217.9 292.4,217.4 297.8,216.3 303.2,214.7 308.6,212.6 313.9,210.0 319.3,206.9 324.7,203.3 330.1,199.3 335.5,194.9 340.9,190.1 346.3,184.9 351.7,179.5 357.1,173.8 362.5,167.8 367.9,161.7 373.3,155.4 378.7,149.0 384.1,142.6 389.5,136.2 394.9,129.8 400.3,123.4 405.7,117.2 411.1,111.2 416.4,105.3 421.8,99.7 427.2,94.4 432.6,89.5 438.0,84.9 443.4,80.7 448.8,76.9 454.2,73.5 459.6,70.7 465.0,68.3 470.4,66.4 475.8,65.1 481.2,64.3 486.6,64.0 492.0,64.3 497.4,65.1 502.8,66.4 508.2,68.3 513.6,70.7 518.9,73.5 524.3,76.9 529.7,80.7 535.1,84.9 540.5,89.5 545.9,94.4 551.3,99.7 556.7,105.3 562.1,111.2 567.5,117.2 572.9,123.4 578.3,129.8 583.7,136.2 589.1,142.6 594.5,149.0 599.9,155.4 605.3,161.7 610.7,167.8 616.1,173.8 621.4,179.5 626.8,184.9 632.2,190.1 637.6,194.9 643.0,199.3 648.4,203.3 653.8,206.9 659.2,210.0 664.6,212.6 670.0,214.7 675.4,216.3 680.8,217.4 686.2,217.9 691.6,217.9 697.0,217.4 702.4,216.3 707.8,214.7 713.2,212.6 718.6,210.0 723.9,206.9 729.3,203.3 734.7,199.3 740.1,194.9 745.5,190.1 750.9,184.9 756.3,179.5 761.7,173.8 767.1,167.8 772.5,161.7 777.9,155.4 783.3,149.0 788.7,142.6 794.1,136.2 799.5,129.8 804.9,123.4 810.3,117.2 815.7,111.2 821.1,105.3 826.4,99.7 831.8,94.4 837.2,89.5 842.6,84.9 848.0,80.7 853.4,76.9 858.8,73.5 864.2,70.7 869.6,68.3 875.0,66.4" fill="none" stroke="#A07628" stroke-width="1.2" stroke-linejoin="round" opacity="0.7" stroke-dasharray="4 4"/>
<polyline points="55.0,209.8 60.4,207.1 65.8,205.4 71.2,202.6 76.6,204.3 82.0,201.5 87.4,200.4 92.8,198.8 98.2,196.3 103.6,187.1 108.9,179.7 114.3,178.1 119.7,173.7 125.1,172.5 130.5,172.3 135.9,172.7 141.3,170.6 146.7,168.7 152.1,170.1 157.5,165.6 162.9,170.4 168.3,165.7 173.7,158.3 179.1,164.0 184.5,168.8 189.9,159.0 195.3,161.3 200.7,155.1 206.1,155.8 211.4,147.5 216.8,152.3 222.2,142.0 227.6,142.7 233.0,139.5 238.4,142.1 243.8,135.6 249.2,126.0 254.6,125.6 260.0,135.5 265.4,126.7 270.8,128.9 276.2,128.7 281.6,126.2 287.0,132.4 292.4,139.2 297.8,136.9 303.2,125.7 308.6,128.0 313.9,115.1 319.3,114.5 324.7,108.6 330.1,113.0 335.5,114.5 340.9,100.6 346.3,105.6 351.7,110.0 357.1,106.2 362.5,109.9 367.9,114.0 373.3,113.3 378.7,124.3 384.1,128.8 389.5,145.6 394.9,150.7 400.3,146.2 405.7,138.6 411.1,133.1 416.4,130.0 421.8,139.3 427.2,137.0 432.6,128.0 438.0,114.1 443.4,101.2 448.8,90.0 454.2,79.1 459.6,72.2 465.0,76.7 470.4,82.9 475.8,84.8 481.2,93.8 486.6,88.1 492.0,87.2 497.4,89.1 502.8,91.0 508.2,97.3 513.6,96.2 518.9,100.5 524.3,104.0 529.7,109.7 535.1,105.9 540.5,109.7 545.9,111.6 551.3,110.6 556.7,112.1 562.1,113.6 567.5,111.9 572.9,109.9 578.3,112.2 583.7,113.3 589.1,117.6 594.5,124.7 599.9,126.5 605.3,126.1 610.7,133.5 616.1,137.2 621.4,140.1 626.8,139.0 632.2,138.4 637.6,136.7 643.0,137.2 648.4,140.9 653.8,140.1 659.2,144.2 664.6,142.4 670.0,138.8 675.4,138.5 680.8,138.4 686.2,138.7 691.6,138.7 697.0,138.3 702.4,138.5 707.8,141.2 713.2,139.6 718.6,139.3 723.9,138.6 729.3,140.2 734.7,140.9 740.1,140.3 745.5,137.5 750.9,136.2 756.3,137.7 761.7,140.3 767.1,142.5 772.5,144.2 777.9,146.5 783.3,148.8 788.7,152.6 794.1,157.1 799.5,161.1 804.9,164.5 810.3,168.1 815.7,170.9 821.1,172.0 826.4,173.5 831.8,174.8 837.2,175.4 842.6,177.1 848.0,178.5 853.4,179.3 858.8,179.8 864.2,179.7 869.6,179.9 875.0,181.1" fill="none" stroke="#0e7490" stroke-width="1.6" stroke-linejoin="round" opacity="1.0"/>
<text x="55.0" y="234.0" font-family="ui-monospace, Menlo, Consolas, monospace" font-size="12" fill="#6b675f" text-anchor="start" font-weight="normal">1870</text>
<text x="875.0" y="234.0" font-family="ui-monospace, Menlo, Consolas, monospace" font-size="12" fill="#6b675f" text-anchor="end" font-weight="normal">2022</text>
<text x="875.0" y="56.0" font-family="system-ui, sans-serif" font-size="11" fill="#6b675f" text-anchor="end" font-weight="normal">series (solid) · 75y reference cosine (dashed, rescaled)</text>
<line x1="55" y1="430" x2="875" y2="430" stroke="#c9c4b8" stroke-width="1"/>
<rect x="55" y="296" width="115.6" height="134" fill="#c9c4b8" opacity="0.25"/>
<polyline points="72.2,296.0 89.3,302.9 106.5,312.8 123.6,322.7 140.8,328.3 158.0,328.5 175.1,326.1 192.3,324.5 209.4,324.9 226.6,325.9 243.8,325.2 260.9,321.8 278.1,317.2 295.2,314.0 312.4,314.6 329.6,320.2 346.7,332.0 363.9,350.4 381.0,375.1 398.2,400.6 415.4,412.7 432.5,408.9 449.7,404.2 466.8,405.0 484.0,409.7 501.1,411.8 518.3,405.8 535.5,395.3 552.6,386.7 569.8,383.0 586.9,384.8 604.1,391.0 621.3,399.5 638.4,407.1 655.6,411.7 672.7,414.7 689.9,418.6 707.1,424.5 724.2,430.0 741.4,429.9 758.5,422.8 775.7,413.5 792.9,406.6 810.0,404.2 827.2,406.6 844.3,412.4 861.5,419.5" fill="none" stroke="#2b2926" stroke-width="1.3" stroke-linejoin="round" opacity="1.0"/>
<line x1="289.3" y1="290" x2="289.3" y2="430" stroke="#A07628" stroke-width="1.4" stroke-dasharray="3 3"/>
<text x="294.3" y="302.0" font-family="ui-monospace, Menlo, Consolas, monospace" font-size="11" fill="#A07628" text-anchor="start" font-weight="normal">target: 75y</text>
<text x="55.0" y="282.0" font-family="system-ui, sans-serif" font-size="11" fill="#6b675f" text-anchor="start" font-weight="normal">multitaper spectrum (NW=2, K=3), log power — descriptive only</text>
<text x="59.0" y="424.0" font-family="ui-monospace, Menlo, Consolas, monospace" font-size="10" fill="#6b675f" text-anchor="start" font-weight="normal">below record resolution</text>
<text x="55.0" y="446.0" font-family="ui-monospace, Menlo, Consolas, monospace" font-size="10" fill="#6b675f" text-anchor="start" font-weight="normal">longer periods</text>
<text x="875.0" y="446.0" font-family="ui-monospace, Menlo, Consolas, monospace" font-size="10" fill="#6b675f" text-anchor="end" font-weight="normal">shorter periods</text>
<line x1="523.6" y1="430" x2="523.6" y2="434" stroke="#6b675f" stroke-width="1"/>
<text x="523.6" y="458.0" font-family="ui-monospace, Menlo, Consolas, monospace" font-size="10" fill="#6b675f" text-anchor="middle" font-weight="normal">38y</text>
<line x1="289.3" y1="430" x2="289.3" y2="434" stroke="#6b675f" stroke-width="1"/>
<text x="289.3" y="458.0" font-family="ui-monospace, Menlo, Consolas, monospace" font-size="10" fill="#6b675f" text-anchor="middle" font-weight="normal">75y</text>
<line x1="172.1" y1="430" x2="172.1" y2="434" stroke="#6b675f" stroke-width="1"/>
<text x="172.1" y="458.0" font-family="ui-monospace, Menlo, Consolas, monospace" font-size="10" fill="#6b675f" text-anchor="middle" font-weight="normal">150y</text>
<rect x="55" y="250" width="820" height="24" fill="#8a2b20" opacity="0.08"/>
<text x="465.0" y="266.0" font-family="ui-monospace, Menlo, Consolas, monospace" font-size="13" fill="#8a2b20" text-anchor="middle" font-weight="600">INSUFFICIENT SPAN — 2.0 OF 3.0 REQUIRED PERIODS</text>
<text x="55.0" y="486.0" font-family="ui-monospace, Menlo, Consolas, monospace" font-size="10" fill="#6b675f" text-anchor="start" font-weight="normal">sinusoidal history · spectral verdict · see /methods</text>
</svg>
